<?xml version="1.0" standalone="no"?>
<!DOCTYPE svg PUBLIC "-//W3C//DTD SVG 20010904//EN"
 "http://www.w3.org/TR/2001/REC-SVG-20010904/DTD/svg10.dtd">
<svg version="1.0" xmlns="http://www.w3.org/2000/svg"
 width="456.000000pt" height="427.000000pt" viewBox="0 0 456.000000 427.000000"
 preserveAspectRatio="xMidYMid meet">

<g transform="translate(0.000000,427.000000) scale(0.100000,-0.100000)"
fill="#000000" stroke="none">
<path d="M2360 4101 c0 -28 5 -51 10 -51 6 0 10 20 10 44 0 25 -4 48 -10 51
-6 4 -10 -13 -10 -44z"/>
<path d="M2360 4010 c0 -11 5 -20 10 -20 6 0 10 9 10 20 0 11 -4 20 -10 20 -5
0 -10 -9 -10 -20z"/>
<path d="M2360 3939 c0 -32 -26 -85 -45 -93 -14 -5 -65 -106 -65 -128 0 -6 -7
-16 -16 -23 -13 -9 -9 -10 20 -7 39 5 44 -1 21 -25 -24 -24 -9 -28 16 -4 18
16 33 20 66 17 43 -3 58 6 27 18 -9 3 -37 6 -62 7 -36 0 -42 3 -27 9 11 5 37
9 58 9 51 1 45 24 -8 31 -26 3 -40 11 -45 25 -8 23 8 55 28 55 7 0 24 7 37 16
13 9 28 13 33 10 14 -8 35 -93 29 -111 -4 -10 2 -17 19 -21 29 -7 41 0 27 18
-5 7 -10 29 -12 48 -2 38 -35 80 -62 80 -13 0 -17 8 -16 35 1 19 -4 40 -11 47
-9 9 -12 6 -12 -13z"/>
<path d="M2430 3689 c-24 -7 -24 -7 -2 -8 12 -1 22 -7 22 -16 0 -15 -11 -19
-38 -16 -8 1 -16 -7 -19 -18 -6 -25 -48 -29 -57 -6 -6 18 5 20 22 3 6 -6 15
-8 19 -5 12 12 -22 38 -40 31 -9 -3 -17 -10 -17 -15 0 -5 -7 -9 -15 -9 -17 0
-20 -16 -5 -25 5 -3 6 -13 3 -22 -5 -14 0 -15 36 -9 28 4 40 3 36 -4 -3 -5
-15 -10 -26 -10 -12 0 -23 -10 -29 -26 -15 -39 -13 -42 35 -36 28 3 45 1 45
-6 0 -20 40 1 42 22 1 11 2 28 3 36 0 8 13 28 29 45 26 28 27 29 7 37 -23 8
-28 28 -8 28 7 0 18 -5 24 -11 9 -9 16 -8 27 4 15 14 14 16 -6 19 -13 2 -22 9
-21 16 3 12 -24 13 -67 1z"/>
<path d="M2571 3603 c26 -45 22 -61 -9 -44 -59 32 -94 -2 -93 -90 0 -48 4 -67
19 -82 21 -20 60 -17 59 6 -1 36 4 57 14 57 7 0 9 -11 6 -30 -4 -16 -2 -30 2
-30 5 0 13 29 16 65 5 45 12 65 21 65 8 0 14 -8 15 -17 0 -11 3 -13 6 -6 6 15
-43 117 -65 135 -9 8 -6 -3 9 -29z m9 -73 c0 -5 -2 -10 -4 -10 -3 0 -8 5 -11
10 -3 6 -1 10 4 10 6 0 11 -4 11 -10z m-40 -10 c0 -5 -4 -10 -9 -10 -6 0 -13
5 -16 10 -3 6 1 10 9 10 9 0 16 -4 16 -10z"/>
<path d="M2157 3611 c-4 -17 -3 -21 5 -13 5 5 8 16 6 23 -3 8 -7 3 -11 -10z"/>
<path d="M2126 3551 c-7 -11 36 -61 53 -61 6 0 11 7 11 15 0 8 9 15 20 15 11
0 20 -2 20 -3 0 -13 -33 -67 -41 -67 -14 0 -11 -26 6 -40 13 -11 14 -10 8 6
-6 17 -5 17 10 5 9 -7 14 -17 11 -22 -3 -5 -1 -9 5 -9 5 0 16 -3 25 -6 25 -10
22 80 -5 117 -20 29 -52 38 -64 19 -9 -15 -25 -12 -25 5 0 7 8 19 18 24 9 6
12 11 5 11 -6 0 -15 -5 -18 -10 -5 -8 -11 -8 -20 0 -8 7 -15 7 -19 1z"/>
<path d="M2255 3540 c3 -5 8 -10 11 -10 2 0 4 5 4 10 0 6 -5 10 -11 10 -5 0
-7 -4 -4 -10z"/>
<path d="M2101 3458 c1 -18 3 -25 6 -16 2 9 14 20 26 24 21 7 22 7 2 15 -32
12 -35 11 -34 -23z"/>
<path d="M2310 3471 c13 -9 13 -12 1 -20 -7 -5 -11 -14 -7 -19 4 -6 2 -30 -4
-54 -9 -36 -20 -49 -56 -72 -49 -31 -54 -45 -8 -21 48 25 91 13 66 -18 -12
-15 -22 -158 -11 -151 5 3 9 30 9 60 0 30 4 54 8 54 5 0 18 -10 30 -23 23 -24
29 -66 12 -83 -5 -5 -7 -20 -3 -32 5 -20 10 -22 32 -17 14 4 37 9 51 12 30 5
28 1 22 46 -5 41 -22 51 -22 12 0 -14 -4 -25 -10 -25 -5 0 -10 20 -10 45 l0
45 41 0 c41 0 41 0 36 33 -9 57 -13 68 -27 77 -23 14 -5 21 24 10 15 -5 35
-10 44 -10 29 1 -33 30 -83 39 -43 8 -45 8 -30 -9 15 -16 14 -18 -21 -24 -20
-4 -38 -5 -40 -3 -3 2 -2 23 2 45 7 46 42 67 51 31 9 -33 18 -21 18 24 0 41
-1 42 -35 44 -19 1 -48 5 -65 8 -23 5 -27 4 -15 -4z m104 -187 c5 -14 1 -16
-25 -10 -17 3 -40 6 -51 6 -10 0 -16 5 -13 10 11 17 82 12 89 -6z m56 -15 c0
-5 -7 -9 -15 -9 -15 0 -20 12 -9 23 8 8 24 -1 24 -14z m-70 -53 c0 -14 -4 -28
-10 -31 -6 -4 -10 7 -10 24 0 17 5 31 10 31 6 0 10 -11 10 -24z"/>
<path d="M2628 3452 c-22 -4 -23 -11 -3 -26 24 -17 10 -124 -17 -128 -19 -3
-19 -4 2 -26 14 -14 26 -20 31 -15 9 9 16 191 8 197 -2 1 -12 1 -21 -2z"/>
<path d="M2684 3404 c1 -19 8 -25 36 -30 19 -4 42 -13 52 -21 15 -13 15 -12 4
21 -15 45 -26 56 -26 28 0 -28 -30 -30 -37 -3 -8 30 -31 34 -29 5z"/>
<path d="M2050 3405 c7 -9 15 -13 17 -11 7 7 -7 26 -19 26 -6 0 -6 -6 2 -15z"/>
<path d="M2090 3395 c1 -26 2 -28 11 -12 8 14 8 22 0 30 -8 8 -11 3 -11 -18z"/>
<path d="M2160 3411 c0 -5 5 -13 10 -16 6 -3 10 -2 10 4 0 5 -4 13 -10 16 -5
3 -10 2 -10 -4z"/>
<path d="M1966 3391 c-16 -6 -11 -10 24 -19 50 -12 53 -12 44 12 -5 14 -9 15
-16 4 -7 -10 -11 -10 -15 0 -5 13 -10 14 -37 3z"/>
<path d="M2097 3323 c-4 -3 -7 -11 -7 -17 0 -6 5 -5 12 2 6 6 9 14 7 17 -3 3
-9 2 -12 -2z"/>
<path d="M2520 3280 c0 -5 5 -10 10 -10 6 0 10 5 10 10 0 6 -4 10 -10 10 -5 0
-10 -4 -10 -10z"/>
<path d="M2092 3200 c5 -44 2 -56 -16 -74 l-21 -21 -5 36 -5 37 -37 -16 c-34
-15 -53 -42 -29 -42 5 0 11 -11 13 -25 3 -14 1 -25 -5 -25 -5 0 -7 -9 -4 -21
3 -12 -4 -34 -19 -56 -33 -49 -30 -66 5 -24 35 43 57 37 69 -21 6 -32 5 -50
-6 -72 -11 -24 -12 -33 -1 -53 16 -30 2 -76 -25 -81 -16 -4 -18 0 -12 32 8 44
0 45 -34 4 -34 -41 -55 -31 -46 23 7 41 -3 51 -19 21 -33 -60 -59 -93 -71 -88
-17 6 -26 -7 -18 -27 4 -12 14 -6 41 24 41 45 48 47 64 17 10 -19 8 -25 -14
-43 -25 -19 -26 -23 -15 -59 l12 -38 -51 -49 c-57 -54 -73 -60 -73 -27 0 22 0
22 -19 2 -21 -23 -24 -114 -4 -121 7 -3 10 3 6 15 -3 15 30 54 137 163 78 79
157 167 175 194 19 28 45 61 60 75 28 26 33 42 10 34 -12 -5 -15 2 -15 34 0
47 27 80 36 44 4 -14 11 -19 22 -14 15 5 15 3 -1 -21 -9 -15 -13 -27 -7 -27
13 0 38 52 33 70 -4 12 -2 12 5 2 12 -17 86 63 78 85 -3 8 -6 17 -6 19 0 2
-11 4 -25 4 -16 0 -32 -11 -47 -30 -12 -16 -27 -30 -34 -30 -6 0 -19 -10 -27
-22 -14 -20 -18 -21 -27 -8 -6 8 -10 33 -9 55 0 22 0 44 0 50 -1 5 -23 -15
-51 -45 -32 -35 -50 -49 -50 -38 0 9 19 37 43 62 23 25 52 59 65 76 13 16 31
30 40 30 10 0 23 9 30 21 12 19 12 20 -10 14 -13 -4 -27 -11 -32 -16 -15 -14
-29 -10 -22 6 3 9 -3 19 -16 26 -20 11 -21 10 -16 -41z m-62 -75 c0 -8 -4 -15
-10 -15 -5 0 -10 7 -10 15 0 8 5 15 10 15 6 0 10 -7 10 -15z m60 -195 c-6 -11
-17 -20 -25 -20 -24 0 -19 67 8 103 l22 32 3 -47 c2 -26 -2 -56 -8 -68z m-120
-190 c0 -5 -4 -10 -10 -10 -5 0 -10 5 -10 10 0 6 5 10 10 10 6 0 10 -4 10 -10z
m-55 -90 c-3 -5 -10 -10 -16 -10 -5 0 -9 5 -9 10 0 6 7 10 16 10 8 0 12 -4 9
-10z"/>
<path d="M2590 3238 c0 -7 -3 -24 -7 -37 -5 -20 -3 -22 14 -17 24 8 46 -14 38
-36 -4 -10 2 -17 16 -21 13 -4 24 -5 26 -4 1 2 -14 31 -33 65 -33 59 -54 78
-54 50z"/>
<path d="M2705 3199 c-4 -6 -14 -8 -22 -5 -8 3 -13 3 -11 -1 24 -50 34 -63 48
-68 10 -3 30 -25 46 -48 l28 -42 7 30 c3 17 10 37 13 46 9 20 -5 31 -24 19
-11 -7 -11 -11 -1 -24 11 -13 11 -16 -2 -16 -11 0 -18 13 -22 38 -9 54 -12 60
-34 71 -14 8 -22 8 -26 0z"/>
<path d="M1870 3154 c0 -22 2 -25 15 -14 8 7 15 19 15 26 0 8 -7 14 -15 14
-10 0 -15 -10 -15 -26z"/>
<path d="M1790 3158 c0 -6 -7 -19 -16 -29 -15 -17 -14 -17 22 -13 40 5 59 14
30 14 -13 0 -17 6 -13 20 3 13 0 20 -9 20 -8 0 -14 -5 -14 -12z"/>
<path d="M2495 3161 c-3 -5 -1 -12 5 -16 5 -3 10 1 10 9 0 18 -6 21 -15 7z"/>
<path d="M1921 3138 c-1 -20 -6 -28 -20 -28 -28 0 -76 -49 -62 -63 6 -6 11
-30 11 -53 0 -75 34 -65 36 11 0 22 -4 44 -10 48 -8 6 -7 10 2 14 6 2 12 11
12 19 0 8 7 14 15 14 18 0 20 -17 3 -23 -7 -2 -10 -8 -5 -13 4 -4 14 -1 21 7
11 10 12 25 6 54 -6 32 -8 34 -9 13z"/>
<path d="M2555 3130 c29 -30 30 -30 37 -9 10 27 1 44 -17 29 -9 -8 -15 -8 -20
0 -3 5 -11 10 -17 10 -7 0 1 -14 17 -30z"/>
<path d="M2630 3105 c0 -8 4 -15 10 -15 5 0 7 7 4 15 -4 8 -8 15 -10 15 -2 0
-4 -7 -4 -15z"/>
<path d="M1743 3075 c0 -22 2 -30 4 -17 2 12 2 30 0 40 -3 9 -5 -1 -4 -23z"/>
<path d="M2867 3093 c5 -21 53 -59 53 -43 0 6 -7 13 -15 16 -8 3 -17 14 -20
25 -8 24 -25 25 -18 2z"/>
<path d="M1790 3020 c0 -40 2 -71 5 -68 7 7 9 128 1 135 -3 3 -6 -27 -6 -67z"/>
<path d="M2130 3079 c0 -5 5 -7 10 -4 6 3 10 8 10 11 0 2 -4 4 -10 4 -5 0 -10
-5 -10 -11z"/>
<path d="M2589 3088 c-14 -47 1 -102 32 -118 25 -14 24 -14 23 29 -2 38 -28
91 -45 91 -5 0 -9 -1 -10 -2z"/>
<path d="M2135 3051 c-3 -5 -1 -12 5 -16 5 -3 10 1 10 9 0 18 -6 21 -15 7z"/>
<path d="M2725 3039 c-10 -15 3 -25 16 -12 7 7 7 13 1 17 -6 3 -14 1 -17 -5z"/>
<path d="M2817 3035 c-4 -8 -2 -17 3 -20 6 -4 10 3 10 14 0 25 -6 27 -13 6z"/>
<path d="M2870 3001 c0 -5 -6 -16 -14 -24 -13 -12 -13 -17 1 -37 16 -22 17
-23 24 -4 11 28 11 74 -1 74 -5 0 -10 -4 -10 -9z"/>
<path d="M2947 2994 c-3 -3 -3 -13 0 -21 5 -12 1 -14 -15 -8 -13 3 -22 2 -22
-4 0 -15 40 -25 88 -22 l42 3 1 -39 c1 -22 3 -29 6 -18 3 11 9 22 13 25 12 7
-22 45 -40 45 -8 0 -14 8 -14 18 1 9 -2 17 -7 17 -5 0 -9 -7 -9 -15 0 -8 -4
-15 -10 -15 -5 0 -10 6 -10 14 0 17 -14 29 -23 20z"/>
<path d="M2390 2980 c-8 -4 -34 -14 -57 -20 -26 -8 -43 -20 -46 -32 -6 -23 -4
-34 6 -30 4 1 7 -11 7 -27 0 -16 -5 -31 -11 -33 -6 -2 -5 -14 5 -33 13 -24 16
-26 22 -12 8 21 23 22 38 3 6 -8 22 -17 36 -21 25 -8 25 -7 7 13 -18 20 -18
21 1 31 12 7 19 22 20 45 1 32 -1 35 -31 39 l-32 4 33 1 c21 1 32 7 32 17 0 9
11 20 24 26 14 7 22 17 19 25 -6 15 -49 18 -73 4z"/>
<path d="M2530 2961 c13 -25 33 -28 28 -4 -2 10 -11 19 -21 21 -16 3 -17 1 -7
-17z"/>
<path d="M2241 2939 l-23 -31 25 17 c14 9 28 23 31 31 9 25 -9 15 -33 -17z"/>
<path d="M2493 2952 c15 -16 14 -18 -13 -31 -38 -16 -42 -63 -7 -92 40 -33 57
-25 57 27 0 25 -4 43 -8 40 -4 -2 -14 -1 -22 5 -13 7 -12 9 1 9 25 0 31 38 9
50 -28 15 -35 12 -17 -8z"/>
<path d="M2802 2948 c-7 -7 -12 -18 -12 -24 0 -23 -21 -26 -43 -7 -37 34 -45
35 -39 5 l5 -27 -27 24 c-19 18 -26 21 -26 9 0 -25 69 -108 90 -108 22 0 31
-12 35 -47 1 -13 13 -35 25 -46 22 -21 22 -21 15 -2 -4 11 -8 26 -8 33 0 6 -7
12 -14 12 -9 0 -11 5 -6 13 4 6 6 38 5 70 -3 57 3 68 27 45 11 -11 12 -8 6 12
-13 44 -19 52 -33 38z"/>
<path d="M2955 2920 c-4 -6 3 -10 14 -10 25 0 27 6 6 13 -8 4 -17 2 -20 -3z"/>
<path d="M1805 2861 c4 -25 8 -52 11 -59 7 -22 24 -3 24 27 0 15 5 32 11 38
15 15 5 30 -26 35 -25 5 -26 5 -20 -41z"/>
<path d="M1876 2881 c-10 -11 -16 -25 -14 -32 2 -7 14 1 27 19 24 35 15 44
-13 13z"/>
<path d="M3083 2855 c0 -27 2 -38 4 -22 2 15 2 37 0 50 -2 12 -4 0 -4 -28z"/>
<path d="M1690 2880 c0 -5 5 -10 10 -10 6 0 10 5 10 10 0 6 -4 10 -10 10 -5 0
-10 -4 -10 -10z"/>
<path d="M2170 2875 c-7 -9 -11 -18 -8 -20 3 -3 11 1 18 10 7 9 11 18 8 20 -3
3 -11 -1 -18 -10z"/>
<path d="M2545 2880 c3 -5 8 -10 11 -10 2 0 4 5 4 10 0 6 -5 10 -11 10 -5 0
-7 -4 -4 -10z"/>
<path d="M2970 2856 c0 -44 21 -51 38 -13 17 41 15 47 -13 47 -22 0 -25 -4
-25 -34z"/>
<path d="M2853 2864 c-18 -18 -16 -79 2 -98 8 -8 15 -20 15 -26 0 -6 5 -8 10
-5 6 3 10 24 10 47 0 32 3 39 15 34 12 -4 13 -2 6 12 -5 9 -17 25 -28 34 -15
14 -20 14 -30 2z m17 -71 c0 -20 -3 -24 -11 -16 -7 7 -9 19 -6 27 10 24 17 19
17 -11z"/>
<path d="M1591 2824 c0 -11 3 -14 6 -6 3 7 2 16 -1 19 -3 4 -6 -2 -5 -13z"/>
<path d="M1637 2802 c-25 -27 -21 -42 14 -49 18 -3 34 -14 39 -27 6 -15 7 -10
6 21 0 24 -5 43 -10 43 -4 0 -6 7 -2 15 8 22 -27 19 -47 -3z m33 -6 c0 -11
-19 -15 -25 -6 -3 5 1 10 9 10 9 0 16 -2 16 -4z"/>
<path d="M2140 2759 c-44 -56 -51 -76 -19 -57 27 17 80 96 69 103 -5 3 -27
-17 -50 -46z"/>
<path d="M2500 2771 c0 -6 -9 -11 -20 -11 -17 0 -20 -7 -20 -49 0 -46 1 -48
26 -43 28 5 42 31 39 76 -2 27 -25 52 -25 27z"/>
<path d="M2990 2774 c0 -4 23 -35 50 -70 28 -35 50 -67 50 -71 1 -5 12 -21 25
-38 24 -29 25 -29 25 -7 0 12 -7 25 -15 28 -8 4 -15 11 -15 18 0 6 -9 28 -20
49 -11 20 -20 46 -20 58 0 14 -5 19 -14 16 -8 -3 -20 1 -26 9 -12 14 -40 20
-40 8z"/>
<path d="M3086 2753 c4 -16 13 -32 20 -36 8 -4 17 -26 20 -48 l7 -40 27 32 27
33 -31 25 c-16 15 -34 25 -39 23 -5 -1 -11 7 -14 18 -3 11 -9 20 -14 20 -5 0
-6 -12 -3 -27z m74 -53 c0 -5 -2 -10 -4 -10 -3 0 -8 5 -11 10 -3 6 -1 10 4 10
6 0 11 -4 11 -10z"/>
<path d="M2672 2720 c0 -19 2 -27 5 -17 2 9 2 25 0 35 -3 9 -5 1 -5 -18z"/>
<path d="M2295 2701 c3 -24 8 -47 10 -51 3 -4 23 -2 45 4 34 8 43 8 50 -4 8
-12 10 -10 11 10 4 75 -7 88 -61 70 -36 -12 -43 -12 -52 1 -7 10 -8 1 -3 -30z"/>
<path d="M2936 2705 c25 -19 40 -19 24 0 -7 8 -20 15 -28 15 -13 0 -12 -3 4
-15z"/>
<path d="M2540 2676 c0 -14 5 -28 10 -31 6 -4 10 7 10 24 0 17 -4 31 -10 31
-5 0 -10 -11 -10 -24z"/>
<path d="M2046 2640 c-44 -30 -66 -62 -48 -68 7 -2 12 -24 12 -51 0 -34 5 -51
20 -64 19 -16 20 -16 20 14 0 18 7 37 15 43 19 14 9 60 -11 52 -27 -10 -14 28
19 55 46 39 24 55 -27 19z"/>
<path d="M2120 2647 c-20 -28 -15 -137 5 -137 15 0 9 76 -7 97 -6 7 -3 15 7
21 10 5 15 16 14 25 -3 12 -7 11 -19 -6z"/>
<path d="M2768 2648 c-2 -15 12 -42 41 -78 24 -30 48 -56 52 -58 11 -5 12 25
1 30 -13 5 -72 98 -72 114 0 23 -18 16 -22 -8z"/>
<path d="M1608 2616 c-21 -16 -24 -56 -5 -56 21 0 50 37 44 55 -8 18 -16 19
-39 1z"/>
<path d="M2897 2623 c-4 -3 -7 -23 -7 -43 0 -37 0 -37 43 -37 44 0 137 -29
137 -44 0 -5 -9 -14 -20 -21 -15 -10 -20 -24 -20 -54 0 -33 4 -43 24 -52 22
-10 23 -9 18 11 -2 12 -9 28 -15 35 -12 15 20 55 36 45 5 -3 16 2 23 12 11 15
9 20 -18 39 -18 11 -43 42 -56 69 -27 51 -45 59 -62 27 -14 -25 -28 -25 -55 0
-12 11 -25 17 -28 13z"/>
<path d="M2397 2613 c-3 -5 23 -8 58 -8 35 0 61 3 59 7 -7 10 -111 10 -117 1z"/>
<path d="M1410 2581 c-14 -27 -13 -31 6 -31 9 0 23 -8 30 -17 8 -11 13 -13 14
-5 0 6 5 12 10 12 6 0 10 -17 10 -38 0 -42 21 -79 38 -68 16 9 3 36 -14 29
-10 -4 -14 3 -14 21 0 14 5 26 10 26 6 0 10 8 10 18 0 10 5 23 11 29 27 27
-25 37 -58 11 -16 -13 -34 -1 -26 17 8 22 -15 18 -27 -4z"/>
<path d="M3335 2580 c3 -5 11 -10 16 -10 6 0 7 5 4 10 -3 6 -11 10 -16 10 -6
0 -7 -4 -4 -10z"/>
<path d="M1674 2565 c3 -9 0 -15 -8 -15 -15 0 -51 -49 -42 -57 3 -3 13 2 22
11 9 10 23 15 30 12 15 -6 30 36 19 53 -10 17 -28 13 -21 -4z"/>
<path d="M3276 2561 c-3 -5 -14 -7 -24 -5 -24 7 -51 -78 -32 -101 17 -21 30
-19 30 5 0 11 -4 20 -10 20 -5 0 -10 5 -10 10 0 6 3 9 8 8 14 -3 62 22 62 32
0 6 10 10 23 8 20 -3 22 -8 20 -51 -1 -27 -4 -56 -8 -65 -6 -15 -8 -15 -21 2
-11 16 -14 17 -14 4 0 -11 -6 -15 -20 -11 -21 6 -25 -3 -11 -26 5 -8 16 -11
30 -6 15 5 21 2 21 -9 0 -9 -5 -16 -11 -16 -8 0 -7 -5 1 -15 7 -9 16 -12 20
-8 9 9 31 133 32 176 1 33 -3 38 -33 39 -13 1 -29 5 -36 10 -6 5 -14 5 -17 -1z"/>
<path d="M2403 2543 c15 -2 37 -2 50 0 12 2 0 4 -28 4 -27 0 -38 -2 -22 -4z"/>
<path d="M1591 2524 c0 -11 3 -14 6 -6 3 7 2 16 -1 19 -3 4 -6 -2 -5 -13z"/>
<path d="M2242 2524 c-7 -8 -8 -14 -3 -14 10 0 25 19 20 25 -2 1 -10 -3 -17
-11z"/>
<path d="M2350 2529 c0 -5 5 -7 10 -4 6 3 10 8 10 11 0 2 -4 4 -10 4 -5 0 -10
-5 -10 -11z"/>
<path d="M2545 2520 c3 -5 14 -10 23 -10 15 0 15 2 2 10 -20 13 -33 13 -25 0z"/>
<path d="M2711 2425 c56 -58 107 -105 112 -105 6 0 1 10 -11 23 -12 13 -22 31
-22 40 0 10 -8 17 -18 17 -10 0 -47 29 -82 65 -35 36 -68 65 -72 65 -5 0 37
-47 93 -105z"/>
<path d="M1372 2480 c0 -14 2 -19 5 -12 2 6 2 18 0 25 -3 6 -5 1 -5 -13z"/>
<path d="M2175 2475 c-16 -13 -25 -24 -19 -25 6 0 21 11 34 25 30 32 24 32
-15 0z"/>
<path d="M2265 2480 c-16 -17 -16 -20 -3 -15 9 4 19 13 22 21 7 19 2 18 -19
-6z"/>
<path d="M2380 2489 c-66 -18 -90 -31 -90 -50 0 -10 -9 -19 -22 -21 -27 -4
-35 -26 -13 -35 11 -4 21 0 27 11 15 26 25 11 33 -51 7 -60 20 -79 42 -61 15
12 47 3 38 -12 -3 -5 1 -10 9 -10 9 0 16 -4 16 -10 0 -5 -14 -10 -31 -10 -17
0 -28 4 -24 10 4 6 -5 10 -22 9 -17 -1 -21 -3 -10 -6 21 -6 22 -19 1 -31 -11
-6 -14 -21 -12 -58 l3 -49 34 3 c22 3 31 0 27 -7 -4 -6 -14 -11 -22 -11 -19 0
-18 -4 9 -45 23 -36 57 -47 57 -19 0 10 6 14 14 11 7 -3 19 0 25 6 9 9 14 8
21 -3 8 -13 10 -12 10 4 0 14 5 17 23 12 12 -4 34 -9 49 -12 24 -6 28 -12 34
-56 4 -27 9 -46 12 -43 3 2 11 0 19 -6 10 -9 13 -6 13 15 0 24 3 26 23 20 22
-6 22 -6 -3 22 -38 43 -63 62 -75 57 -22 -8 -65 15 -59 32 5 11 -1 15 -20 15
-16 0 -26 6 -26 14 0 9 7 12 20 9 18 -5 20 0 20 36 0 22 5 41 10 41 6 0 10 -4
10 -9 0 -10 39 -22 42 -13 6 25 3 122 -4 122 -4 0 -8 7 -8 15 0 8 -9 15 -20
15 -20 0 -22 4 -24 45 -1 16 -7 20 -30 18 -35 -3 -46 -17 -46 -59 0 -32 25
-64 51 -64 17 0 39 -19 39 -33 0 -5 -17 -7 -37 -5 l-38 3 -3 -67 -3 -68 -37 0
-36 0 23 16 c21 15 23 23 19 75 -2 33 0 59 5 59 6 0 5 5 -1 13 -5 6 -12 44
-15 84 -4 57 -2 73 10 77 26 10 109 6 121 -6 8 -8 15 -8 27 2 25 21 0 38 -80
55 -79 17 -78 17 -125 4z m-15 -89 c-27 -12 -43 -12 -25 0 8 5 22 9 30 9 10 0
8 -3 -5 -9z m202 -102 c-3 -8 -6 -5 -6 6 -1 11 2 17 5 13 3 -3 4 -12 1 -19z"/>
<path d="M2760 2471 c0 -36 5 -39 19 -12 8 14 7 22 -4 31 -13 11 -15 8 -15
-19z"/>
<path d="M2842 2480 c0 -14 2 -19 5 -12 2 6 2 18 0 25 -3 6 -5 1 -5 -13z"/>
<path d="M1680 2471 c0 -6 5 -13 10 -16 6 -3 10 1 10 9 0 9 -4 16 -10 16 -5 0
-10 -4 -10 -9z"/>
<path d="M3150 2463 c0 -10 -5 -24 -10 -29 -7 -7 2 -21 25 -44 l35 -34 0 27
c0 14 -11 43 -25 63 -19 28 -25 32 -25 17z"/>
<path d="M1856 2430 c-20 -22 -36 -42 -36 -45 0 -13 23 -2 45 20 15 17 26 22
30 15 11 -18 -45 -72 -61 -59 -19 16 -22 0 -16 -84 3 -51 9 -76 16 -74 7 2 10
26 8 66 -4 61 -3 63 18 56 19 -6 21 -4 16 13 -4 11 0 24 9 32 17 14 21 7 28
-45 2 -16 5 -1 5 35 2 71 -8 97 -29 84 -12 -6 -12 -5 0 9 27 33 3 16 -33 -23z"/>
<path d="M1411 2434 c0 -11 3 -14 6 -6 3 7 2 16 -1 19 -3 4 -6 -2 -5 -13z"/>
<path d="M2617 2430 c-4 -17 -2 -20 13 -15 13 4 22 -1 30 -15 6 -12 14 -19 17
-17 6 6 -38 67 -48 67 -4 0 -9 -9 -12 -20z"/>
<path d="M2843 2390 c0 -25 2 -35 4 -22 2 12 2 32 0 45 -2 12 -4 2 -4 -23z"/>
<path d="M1700 2395 c-8 -9 -8 -15 -2 -15 12 0 26 19 19 26 -2 2 -10 -2 -17
-11z"/>
<path d="M1433 2393 c-17 -3 -22 -10 -19 -26 3 -12 5 -28 5 -35 1 -7 6 -10 11
-7 6 4 8 16 4 28 -5 18 -4 20 7 10 10 -10 15 -9 25 5 24 31 19 35 -33 25z"/>
<path d="M1486 2351 c-23 -24 -25 -29 -11 -35 23 -8 55 11 55 34 0 31 -15 31
-44 1z"/>
<path d="M1660 2345 c-28 -30 -40 -31 -47 -5 -3 11 -14 20 -24 20 -21 0 -36
-20 -21 -29 12 -7 -2 -97 -19 -117 -13 -16 -39 -19 -39 -4 0 13 -42 30 -52 21
-4 -3 -3 -28 2 -54 l10 -48 -66 -64 c-37 -36 -68 -65 -70 -65 -1 0 -4 12 -6
28 -2 22 -8 27 -30 27 -33 1 -34 0 -8 -32 11 -14 20 -36 20 -49 0 -13 4 -24 9
-24 12 0 211 191 211 202 0 17 81 113 120 143 24 19 39 38 40 53 0 28 -1 28
-30 -3z"/>
<path d="M2862 2343 c-1 -21 -8 -33 -19 -36 -14 -3 7 -29 85 -106 56 -57 102
-105 102 -107 0 -5 162 -164 167 -164 12 0 -2 24 -32 57 -19 21 -35 44 -35 51
0 7 -4 11 -9 8 -5 -3 -11 1 -15 9 -3 8 -12 15 -20 15 -25 0 -40 41 -37 100 4
75 17 89 48 53 13 -15 23 -23 21 -18 -7 21 -50 85 -58 85 -12 0 -20 -28 -20
-70 0 -20 -3 -51 -6 -68 l-6 -30 -79 80 c-72 73 -78 84 -82 126 -2 31 -4 36
-5 15z"/>
<path d="M1320 2333 c-32 -13 -44 -34 -32 -54 7 -10 12 -28 12 -39 0 -11 5
-20 10 -20 6 0 8 11 4 25 -7 30 -1 32 26 5 17 -17 23 -18 40 -8 11 7 20 18 20
25 0 6 7 18 15 26 12 13 12 15 -5 20 -15 4 -20 0 -20 -14 0 -19 -33 -43 -44
-32 -10 10 -7 53 4 53 6 0 10 5 10 10 0 11 -16 12 -40 3z"/>
<path d="M2086 2254 c-34 -39 -36 -45 -23 -59 10 -9 18 -11 22 -5 3 5 1 10 -4
10 -16 0 -13 19 4 37 20 19 32 9 15 -12 -11 -13 -11 -16 1 -13 11 2 15 -18 17
-104 2 -100 4 -108 22 -108 11 0 20 -5 20 -11 0 -8 6 -7 16 2 15 12 14 14 -7
19 -24 6 -24 6 -24 148 0 90 -3 142 -10 141 -5 0 -27 -21 -49 -45z"/>
<path d="M2015 2260 c-3 -5 -1 -10 4 -10 6 0 11 5 11 10 0 6 -2 10 -4 10 -3 0
-8 -4 -11 -10z"/>
<path d="M2756 2222 c-3 -5 11 -24 31 -43 l36 -34 -23 43 c-23 42 -34 50 -44
34z"/>
<path d="M1642 2208 c-6 -6 -12 -19 -12 -27 0 -13 2 -13 16 1 9 9 15 21 13 27
-3 9 -8 8 -17 -1z"/>
<path d="M1346 2196 c3 -7 -5 -17 -18 -23 -21 -10 -21 -12 -5 -18 19 -8 47 10
47 30 0 7 -7 15 -14 18 -10 4 -13 1 -10 -7z"/>
<path d="M1683 2202 c-6 -4 -14 -18 -18 -31 -5 -16 -4 -21 4 -17 6 4 11 1 11
-6 1 -7 7 -26 15 -43 13 -29 14 -28 12 33 -1 65 -5 76 -24 64z"/>
<path d="M2710 2190 c0 -5 4 -10 9 -10 5 0 14 -13 21 -29 7 -18 21 -31 36 -34
23 -4 22 -2 -11 29 -20 18 -34 38 -30 44 3 5 -1 10 -9 10 -9 0 -16 -4 -16 -10z"/>
<path d="M2551 2164 c0 -11 3 -14 6 -6 3 7 2 16 -1 19 -3 4 -6 -2 -5 -13z"/>
<path d="M1823 2151 c-4 -9 -8 -20 -11 -25 -3 -5 7 -1 21 10 30 22 34 31 11
31 -9 0 -18 -7 -21 -16z"/>
<path d="M2580 2156 c0 -9 5 -16 10 -16 6 0 10 4 10 9 0 6 -4 13 -10 16 -5 3
-10 -1 -10 -9z"/>
<path d="M3090 2159 c0 -5 5 -7 10 -4 6 3 10 8 10 11 0 2 -4 4 -10 4 -5 0 -10
-5 -10 -11z"/>
<path d="M1610 2149 c0 -5 5 -7 10 -4 6 3 10 8 10 11 0 2 -4 4 -10 4 -5 0 -10
-5 -10 -11z"/>
<path d="M2070 2135 c0 -8 5 -15 10 -15 6 0 10 7 10 15 0 8 -4 15 -10 15 -5 0
-10 -7 -10 -15z"/>
<path d="M3130 2139 c0 -5 5 -7 10 -4 6 3 10 8 10 11 0 2 -4 4 -10 4 -5 0 -10
-5 -10 -11z"/>
<path d="M1275 2129 c-4 -6 -4 -13 -1 -16 8 -8 36 5 36 17 0 13 -27 13 -35 -1z"/>
<path d="M2830 2136 c0 -2 8 -10 18 -17 15 -13 16 -12 3 4 -13 16 -21 21 -21
13z"/>
<path d="M1623 2116 c-7 -9 -8 -25 -3 -47 7 -29 8 -30 9 -8 1 14 6 30 13 37 8
8 8 15 3 21 -6 6 -15 4 -22 -3z"/>
<path d="M1779 2103 c-13 -16 -12 -17 4 -4 9 7 17 15 17 17 0 8 -8 3 -21 -13z"/>
<path d="M1000 2090 c0 -5 7 -10 16 -10 8 0 12 5 9 10 -3 6 -10 10 -16 10 -5
0 -9 -4 -9 -10z"/>
<path d="M2750 2070 c0 -28 21 -55 33 -43 4 3 7 19 7 34 0 18 -6 28 -20 32
-16 4 -20 0 -20 -23z"/>
<path d="M2237 2052 c-24 -25 -26 -31 -13 -41 8 -6 17 -23 20 -36 8 -32 19
-32 40 0 21 32 20 57 -2 84 l-17 22 -28 -29z"/>
<path d="M1517 2030 c-3 -11 -1 -23 4 -26 5 -3 9 6 9 20 0 31 -6 34 -13 6z"/>
<path d="M2043 2043 c-18 -7 -16 -33 2 -33 8 0 15 9 15 20 0 11 -1 20 -2 19
-2 0 -9 -3 -15 -6z"/>
<path d="M1696 2024 c-5 -14 -4 -15 9 -4 17 14 19 20 6 20 -5 0 -12 -7 -15
-16z"/>
<path d="M1866 2024 c-17 -12 -17 -14 -4 -14 9 0 20 5 23 11 11 17 2 18 -19 3z"/>
<path d="M1455 2020 c-3 -5 -2 -10 4 -10 5 0 13 5 16 10 3 6 2 10 -4 10 -5 0
-13 -4 -16 -10z"/>
<path d="M2861 2014 c0 -11 3 -14 6 -6 3 7 2 16 -1 19 -3 4 -6 -2 -5 -13z"/>
<path d="M1724 1988 l-19 -23 23 19 c21 18 27 26 19 26 -2 0 -12 -10 -23 -22z"/>
<path d="M3277 1994 c-4 -4 -7 -17 -7 -28 1 -19 1 -20 11 -3 11 19 8 43 -4 31z"/>
<path d="M1624 1976 c-8 -22 -2 -27 16 -16 12 7 12 12 3 21 -10 10 -14 9 -19
-5z"/>
<path d="M2345 1963 c-18 -5 -66 -33 -55 -33 3 0 27 7 54 15 56 17 145 19 196
5 32 -9 33 -8 16 5 -20 15 -163 20 -211 8z"/>
<path d="M1830 1940 c0 -13 5 -20 13 -17 6 2 12 10 12 17 0 7 -6 15 -12 18 -8
2 -13 -5 -13 -18z"/>
<path d="M3070 1908 c25 -24 47 -43 49 -42 7 5 -10 23 -52 55 l-42 32 45 -45z"/>
<path d="M2428 1933 c6 -2 18 -2 25 0 6 3 1 5 -13 5 -14 0 -19 -2 -12 -5z"/>
<path d="M2248 1918 c-16 -5 -28 -14 -28 -19 0 -14 13 -10 40 11 28 22 27 23
-12 8z"/>
<path d="M2760 1915 c7 -9 10 -18 7 -22 -4 -3 0 -15 8 -25 16 -23 10 -48 -12
-48 -20 0 -9 -15 29 -37 l33 -19 0 59 c0 54 -3 61 -30 83 -34 27 -54 32 -35 9z"/>
<path d="M3013 1914 c13 -15 17 -40 18 -95 0 -78 11 -72 22 12 6 43 4 48 -26
75 -17 16 -24 20 -14 8z"/>
<path d="M1669 1893 c-13 -16 -12 -17 4 -4 9 7 17 15 17 17 0 8 -8 3 -21 -13z"/>
<path d="M2013 1886 c-28 -24 -31 -30 -20 -47 6 -10 17 -19 23 -19 16 0 36 44
32 70 l-3 23 -32 -27z"/>
<path d="M2400 1893 c-53 -7 -102 -25 -119 -42 -10 -10 -24 -20 -32 -23 -16
-5 -3 -28 17 -28 8 0 14 7 14 15 0 8 7 15 16 15 8 0 22 6 30 14 22 23 152 31
197 12 20 -8 37 -16 37 -18 0 -2 -52 -3 -115 -3 -78 -1 -119 -5 -127 -13 -17
-17 -18 -144 0 -149 19 -7 15 -53 -4 -53 -13 0 -15 -7 -10 -31 3 -17 6 -43 7
-58 1 -24 2 -23 10 8 8 27 14 32 32 27 11 -3 27 0 34 5 9 8 15 4 24 -15 7 -15
15 -23 18 -18 8 13 120 22 126 11 4 -5 17 -9 31 -9 19 0 24 -5 24 -25 0 -17 4
-23 14 -19 12 4 12 10 2 30 -8 15 -11 48 -8 90 3 47 1 65 -7 60 -6 -4 -11 -17
-11 -30 0 -25 -21 -76 -32 -76 -5 0 -8 8 -8 19 0 21 -23 45 -33 34 -4 -3 -7
-1 -7 5 0 7 5 12 12 12 17 0 -2 16 -27 24 -16 4 -23 -1 -33 -24 -15 -33 -32
-40 -32 -12 0 22 -19 42 -39 42 -10 0 -17 10 -17 25 -1 18 3 25 16 25 10 0 21
-6 24 -12 3 -7 5 16 4 52 l-2 65 32 3 c33 3 45 -14 17 -24 -11 -5 -15 -21 -15
-60 0 -53 0 -54 30 -54 20 0 30 5 30 15 0 24 31 17 38 -7 5 -18 8 -13 13 22 8
55 3 68 -24 72 -11 2 -22 9 -25 17 -3 10 2 13 20 9 18 -3 24 0 25 13 2 29 -32
46 -127 63 -8 2 -26 1 -40 -1z m86 -190 c-10 -10 -19 5 -10 18 6 11 8 11 12 0
2 -7 1 -15 -2 -18z m-106 -63 c0 -5 -2 -10 -4 -10 -3 0 -8 5 -11 10 -3 6 -1
10 4 10 6 0 11 -4 11 -10z"/>
<path d="M1831 1853 c0 -23 4 -45 9 -48 11 -7 11 16 0 60 -7 28 -8 28 -9 -12z"/>
<path d="M1657 1853 c-13 -15 -13 -20 -1 -31 7 -6 11 -19 8 -27 -4 -8 -2 -15
4 -15 6 0 10 20 10 45 -1 25 -2 45 -3 45 -1 0 -9 -8 -18 -17z"/>
<path d="M1713 1805 c0 -38 2 -53 4 -32 2 20 2 52 0 70 -2 17 -4 1 -4 -38z"/>
<path d="M1620 1850 c-9 -6 -10 -10 -3 -10 6 0 15 5 18 10 8 12 4 12 -15 0z"/>
<path d="M3099 1831 c6 -10 7 -22 3 -27 -4 -5 1 -3 10 5 19 14 13 41 -8 41
-11 0 -12 -4 -5 -19z"/>
<path d="M2055 1792 l-19 -27 24 16 c24 16 38 39 23 39 -4 0 -17 -13 -28 -28z"/>
<path d="M2630 1809 c0 -5 5 -7 10 -4 6 3 10 8 10 11 0 2 -4 4 -10 4 -5 0 -10
-5 -10 -11z"/>
<path d="M2900 1766 c0 -27 -5 -46 -11 -46 -6 0 -1 -11 12 -25 37 -38 53 -33
46 16 -5 37 -3 40 14 36 17 -5 18 -3 8 9 -7 8 -25 24 -41 35 l-28 20 0 -45z"/>
<path d="M1641 1784 c0 -11 3 -14 6 -6 3 7 2 16 -1 19 -3 4 -6 -2 -5 -13z"/>
<path d="M1867 1775 c-15 -6 -35 -22 -44 -35 -9 -13 -12 -20 -6 -17 6 4 13 -3
16 -16 2 -12 8 -30 12 -39 4 -10 3 -18 -3 -18 -5 0 -26 -16 -46 -36 -20 -20
-41 -34 -48 -31 -7 2 -19 -3 -26 -12 -12 -14 -12 -14 -8 4 3 11 8 35 10 53 2
18 12 42 22 53 15 16 15 19 2 14 -9 -4 -19 -13 -22 -21 -3 -8 -10 -14 -15 -14
-5 0 -25 -14 -43 -32 -30 -28 -30 -30 -5 -14 22 13 27 14 27 2 0 -7 -7 -19
-15 -26 -20 -17 -19 -40 3 -40 13 0 10 -6 -13 -25 -35 -29 -26 -33 13 -6 15
10 60 40 100 67 124 83 131 89 136 102 3 7 2 11 -3 7 -5 -3 -21 -1 -36 5 -27
10 -32 39 -7 48 7 2 10 -2 6 -12 -3 -9 -1 -16 5 -16 15 0 24 23 19 48 -3 16
-6 17 -31 7z"/>
<path d="M2601 1748 c0 -27 4 -48 9 -48 6 0 10 7 10 15 0 7 8 19 18 24 15 9
15 10 -5 11 -14 0 -23 8 -26 23 -2 12 -5 1 -6 -25z"/>
<path d="M2113 1773 c-7 -2 -13 -10 -13 -16 0 -7 -14 -18 -30 -25 -17 -8 -27
-18 -24 -23 3 -6 0 -16 -6 -24 -7 -8 -8 -15 -4 -15 5 0 8 -34 6 -76 -3 -42 0
-86 6 -98 6 -11 13 -30 15 -41 2 -11 3 37 3 107 -1 88 3 131 11 139 7 7 15 10
18 7 3 -3 6 -46 6 -96 0 -51 5 -94 10 -98 5 -3 9 -14 9 -24 0 -10 4 -21 9 -24
4 -3 8 56 8 132 0 75 2 146 4 156 4 20 -7 28 -28 19z"/>
<path d="M1999 1751 c-13 -11 -19 -20 -14 -20 14 0 50 28 43 34 -3 3 -16 -3
-29 -14z"/>
<path d="M2260 1760 c0 -5 5 -10 11 -10 5 0 7 5 4 10 -3 6 -8 10 -11 10 -2 0
-4 -4 -4 -10z"/>
<path d="M2272 1715 c0 -16 2 -22 5 -12 2 9 2 23 0 30 -3 6 -5 -1 -5 -18z"/>
<path d="M3816 1715 c6 -16 22 -19 48 -9 28 11 17 24 -19 24 -26 0 -33 -3 -29
-15z"/>
<path d="M2757 1700 c-6 -22 0 -30 21 -30 9 0 23 -7 33 -16 10 -9 25 -14 34
-12 11 2 1 14 -33 40 -45 33 -50 35 -55 18z"/>
<path d="M3275 1699 c-4 -5 -14 -8 -21 -5 -13 5 -12 2 1 -16 8 -13 15 -35 15
-50 0 -30 14 -38 24 -12 3 8 10 12 16 9 5 -3 10 0 10 8 0 8 -7 18 -16 21 -10
4 -14 14 -11 26 6 22 -8 36 -18 19z"/>
<path d="M3032 1662 c-1 -14 -7 -29 -13 -33 -8 -4 -6 -15 6 -33 26 -39 45 -34
45 14 0 23 5 40 11 40 17 0 -7 27 -29 32 -13 4 -18 -1 -20 -20z"/>
<path d="M1970 1626 c0 -14 5 -28 10 -31 6 -4 10 7 10 24 0 17 -4 31 -10 31
-5 0 -10 -11 -10 -24z"/>
<path d="M2570 1630 c0 -5 5 -10 11 -10 5 0 7 5 4 10 -3 6 -8 10 -11 10 -2 0
-4 -4 -4 -10z"/>
<path d="M1440 1623 c0 -4 5 -15 10 -23 8 -13 10 -13 10 2 0 9 -4 20 -10 23
-5 3 -10 3 -10 -2z"/>
<path d="M2752 1605 c0 -16 2 -22 5 -12 2 9 2 23 0 30 -3 6 -5 -1 -5 -18z"/>
<path d="M1884 1605 c-10 -8 -14 -15 -8 -15 6 0 17 7 24 15 16 19 9 19 -16 0z"/>
<path d="M3146 1578 c4 -24 11 -44 16 -46 4 -2 8 -10 8 -17 0 -7 7 -15 15 -19
10 -4 15 1 15 14 0 11 -5 20 -11 20 -6 0 -8 8 -5 18 4 12 -3 29 -19 46 l-25
28 6 -44z"/>
<path d="M2821 1584 c0 -11 3 -14 6 -6 3 7 2 16 -1 19 -3 4 -6 -2 -5 -13z"/>
<path d="M1834 1558 c-3 -5 3 -16 15 -24 13 -10 21 -27 22 -47 l1 -32 11 33
c8 26 7 36 -3 42 -7 4 -10 12 -6 18 3 5 -3 12 -14 15 -11 3 -23 1 -26 -5z"/>
<path d="M1565 1540 c-3 -6 1 -7 9 -4 18 7 21 14 7 14 -6 0 -13 -4 -16 -10z"/>
<path d="M3780 1541 c0 -5 7 -12 16 -15 14 -5 15 -4 4 9 -14 17 -20 19 -20 6z"/>
<path d="M2938 1514 c-5 -4 -8 -23 -8 -43 0 -25 3 -32 11 -24 6 6 9 25 7 43
-2 17 -6 28 -10 24z"/>
<path d="M3020 1502 c0 -11 12 -22 31 -29 24 -10 29 -16 24 -32 -3 -11 -1 -27
6 -34 11 -11 16 -10 31 5 10 10 18 22 18 27 0 4 -25 25 -55 45 -46 30 -55 33
-55 18z"/>
<path d="M3870 1502 c0 -13 6 -30 14 -38 23 -22 25 -2 5 31 -18 28 -19 29 -19
7z"/>
<path d="M1725 1500 c-3 -5 -2 -10 4 -10 5 0 13 5 16 10 3 6 2 10 -4 10 -5 0
-13 -4 -16 -10z"/>
<path d="M2355 1501 c-30 -6 -14 -8 60 -8 75 -1 114 -7 155 -22 63 -24 80 -26
60 -8 -32 29 -199 52 -275 38z"/>
<path d="M2276 1484 c-3 -8 1 -14 9 -14 20 0 28 17 11 23 -8 3 -17 -1 -20 -9z"/>
<path d="M3320 1453 c-15 -19 -17 -28 -8 -34 12 -8 -7 -63 -38 -104 -13 -17
-16 -18 -25 -5 -8 11 -9 6 -5 -20 4 -25 0 -49 -14 -77 -27 -56 -26 -65 5 -51
17 8 22 14 14 19 -9 5 -8 13 3 32 9 13 18 37 20 53 2 22 9 30 26 32 16 3 22 8
18 18 -7 18 27 93 56 124 17 18 18 24 7 31 -23 14 -36 10 -59 -18z"/>
<path d="M2370 1452 c-30 -2 -59 -7 -64 -12 -4 -4 36 -6 90 -3 79 3 113 0 167
-15 74 -21 92 -14 25 11 -48 17 -135 25 -218 19z"/>
<path d="M2831 1444 c0 -11 3 -14 6 -6 3 7 2 16 -1 19 -3 4 -6 -2 -5 -13z"/>
<path d="M824 1410 c-16 -23 -57 -71 -92 -107 -35 -36 -61 -67 -59 -70 7 -6
57 27 57 37 0 4 16 25 36 46 65 71 71 79 83 102 22 41 4 35 -25 -8z"/>
<path d="M1645 1440 c-3 -5 -1 -10 4 -10 6 0 11 5 11 10 0 6 -2 10 -4 10 -3 0
-8 -4 -11 -10z"/>
<path d="M2185 1440 c-3 -5 -2 -10 4 -10 5 0 13 5 16 10 3 6 2 10 -4 10 -5 0
-13 -4 -16 -10z"/>
<path d="M3870 1431 c0 -5 5 -13 10 -16 6 -3 10 -2 10 4 0 5 -4 13 -10 16 -5
3 -10 2 -10 -4z"/>
<path d="M2200 1409 c-19 -11 -26 -17 -15 -13 11 3 30 9 43 11 12 3 22 9 22
14 0 13 -11 10 -50 -12z"/>
<path d="M1661 1398 c-8 -15 -10 -35 -7 -45 7 -17 8 -17 17 0 6 10 9 30 7 45
l-4 27 -13 -27z"/>
<path d="M1932 1380 c0 -19 2 -27 5 -17 2 9 2 25 0 35 -3 9 -5 1 -5 -18z"/>
<path d="M621 1393 c0 -4 4 -17 9 -28 8 -19 9 -19 9 2 1 12 -3 25 -9 28 -5 3
-10 3 -9 -2z"/>
<path d="M1335 1380 c-3 -5 -1 -10 4 -10 6 0 11 5 11 10 0 6 -2 10 -4 10 -3 0
-8 -4 -11 -10z"/>
<path d="M2420 1380 c-25 -5 -4 -8 70 -9 79 -1 111 -5 128 -17 23 -16 39 -14
28 4 -11 18 -172 34 -226 22z"/>
<path d="M2756 1381 c-6 -9 41 -37 49 -29 3 3 -6 13 -19 22 -14 8 -27 12 -30
7z"/>
<path d="M3366 1375 c4 -8 10 -15 15 -15 5 0 9 7 9 15 0 8 -7 15 -15 15 -9 0
-12 -6 -9 -15z"/>
<path d="M2330 1371 c0 -5 9 -7 20 -4 11 3 20 7 20 9 0 2 -9 4 -20 4 -11 0
-20 -4 -20 -9z"/>
<path d="M3766 1357 c3 -10 9 -15 12 -12 3 3 0 11 -7 18 -10 9 -11 8 -5 -6z"/>
<path d="M2228 1353 c7 -3 16 -2 19 1 4 3 -2 6 -13 5 -11 0 -14 -3 -6 -6z"/>
<path d="M3387 1319 c-9 -21 -17 -43 -17 -49 0 -9 -21 -58 -66 -155 -13 -28
-24 -56 -24 -63 0 -7 -4 -20 -9 -30 -38 -76 -51 -107 -57 -139 -4 -20 -13 -48
-20 -62 -8 -14 -14 -30 -14 -34 0 -4 -10 -29 -21 -55 -12 -26 -32 -74 -45
-107 -12 -33 -36 -94 -52 -135 -17 -41 -33 -88 -37 -103 -3 -16 -11 -27 -18
-24 -16 5 -57 -39 -57 -64 0 -16 7 -19 55 -19 30 0 55 3 55 6 0 3 -9 17 -19
30 -20 25 -20 25 6 92 14 37 31 81 37 97 7 17 19 44 28 60 8 17 19 41 23 55 4
14 13 39 21 55 18 39 84 224 91 253 3 12 9 22 14 22 5 0 9 9 9 20 0 11 6 23
14 26 8 3 12 12 9 20 -3 8 3 24 12 34 10 11 15 20 12 20 -4 0 3 21 15 48 11
26 31 74 43 107 13 33 27 59 33 58 7 -2 9 11 5 35 -3 20 -6 38 -7 39 -1 1 -9
-16 -19 -38z"/>
<path d="M2710 1336 c0 -9 5 -16 10 -16 6 0 10 4 10 9 0 6 -4 13 -10 16 -5 3
-10 -1 -10 -9z"/>
<path d="M3810 1340 c-12 -8 -7 -18 28 -52 39 -39 42 -40 28 -13 -9 17 -16 35
-16 41 0 20 -24 34 -40 24z"/>
<path d="M2605 1316 c47 -14 66 -13 52 0 -3 4 -28 8 -54 10 l-48 4 50 -14z"/>
<path d="M3100 1320 c0 -5 5 -10 10 -10 6 0 10 5 10 10 0 6 -4 10 -10 10 -5 0
-10 -4 -10 -10z"/>
<path d="M1550 1306 c0 -8 5 -18 10 -21 6 -3 10 1 10 9 0 8 -4 18 -10 21 -5 3
-10 -1 -10 -9z"/>
<path d="M2105 1310 c-8 -13 5 -13 25 0 13 8 13 10 -2 10 -9 0 -20 -4 -23 -10z"/>
<path d="M2435 1310 c-4 -6 14 -10 51 -10 67 0 68 5 2 14 -29 4 -49 3 -53 -4z"/>
<path d="M2180 1300 c-8 -5 -10 -10 -5 -10 6 0 17 5 25 10 8 5 11 10 5 10 -5
0 -17 -5 -25 -10z"/>
<path d="M904 1269 c-21 -23 -23 -29 -9 -21 25 13 62 52 48 52 -5 0 -22 -14
-39 -31z"/>
<path d="M1440 1266 c0 -20 5 -36 10 -36 6 0 10 13 10 29 0 17 -4 33 -10 36
-6 4 -10 -8 -10 -29z"/>
<path d="M2295 1290 c-3 -5 3 -10 14 -10 11 0 23 5 26 10 3 6 -3 10 -14 10
-11 0 -23 -4 -26 -10z"/>
<path d="M3770 1282 c6 -13 14 -21 18 -18 3 4 -2 14 -12 24 -18 16 -18 16 -6
-6z"/>
<path d="M1522 1260 c0 -19 2 -27 5 -17 2 9 2 25 0 35 -3 9 -5 1 -5 -18z"/>
<path d="M1570 1261 c0 -18 33 -86 37 -75 2 6 -3 27 -12 47 -15 35 -25 47 -25
28z"/>
<path d="M2110 1260 c-8 -5 -12 -12 -9 -15 4 -3 12 1 19 10 14 17 11 19 -10 5z"/>
<path d="M2192 1251 c-10 -6 -10 -10 1 -19 11 -9 18 -8 32 8 17 19 17 20 -1
20 -10 0 -25 -4 -32 -9z"/>
<path d="M2725 1250 c3 -5 10 -10 16 -10 5 0 9 5 9 10 0 6 -7 10 -16 10 -8 0
-12 -4 -9 -10z"/>
<path d="M1908 1210 c-31 -16 -59 -33 -63 -39 -10 -17 41 -13 59 4 8 8 19 15
24 15 5 0 17 11 26 25 9 14 15 25 14 24 -2 -1 -28 -14 -60 -29z"/>
<path d="M850 1219 c0 -5 5 -7 10 -4 6 3 10 8 10 11 0 2 -4 4 -10 4 -5 0 -10
-5 -10 -11z"/>
<path d="M1735 1220 c-3 -5 -2 -10 4 -10 5 0 13 5 16 10 3 6 2 10 -4 10 -5 0
-13 -4 -16 -10z"/>
<path d="M1774 1204 c-18 -14 -18 -15 4 -4 12 6 22 13 22 15 0 8 -5 6 -26 -11z"/>
<path d="M2815 1210 c3 -5 8 -10 11 -10 2 0 4 5 4 10 0 6 -5 10 -11 10 -5 0
-7 -4 -4 -10z"/>
<path d="M770 1143 c-59 -57 -56 -71 5 -23 21 17 41 30 45 30 11 0 19 25 12
36 -4 5 -32 -15 -62 -43z"/>
<path d="M2320 1193 c-93 -14 -95 -14 -77 -24 13 -8 17 -25 18 -82 1 -40 4
-63 6 -51 4 23 58 59 73 49 6 -3 10 -17 10 -30 0 -30 10 -55 21 -55 13 0 11
27 -3 49 -13 22 -5 51 16 51 8 0 17 -10 19 -22 3 -17 5 -14 6 10 1 21 6 32 16
32 10 0 15 -10 15 -32 0 -18 5 -40 10 -48 7 -10 10 10 10 66 0 76 -1 82 -22
88 -24 6 -76 6 -118 -1z"/>
<path d="M2532 1131 c2 -50 9 -75 22 -90 11 -12 22 -21 25 -21 3 0 7 41 7 90
l1 90 -29 0 -30 0 4 -69z"/>
<path d="M3446 1187 c3 -10 9 -15 12 -12 3 3 0 11 -7 18 -10 9 -11 8 -5 -6z"/>
<path d="M2670 1172 c0 -6 5 -14 11 -18 8 -4 8 -9 0 -17 -16 -16 -13 -47 4
-47 8 0 15 7 15 15 0 9 12 27 28 41 l27 24 -28 -6 c-16 -4 -33 -1 -42 6 -10 8
-15 9 -15 2z"/>
<path d="M1610 1159 c0 -8 4 -19 8 -24 5 -6 17 -32 26 -58 10 -27 20 -46 22
-44 5 5 -36 118 -48 132 -5 5 -8 3 -8 -6z"/>
<path d="M2102 1154 c3 -14 11 -18 31 -16 25 3 27 0 27 -33 0 -41 20 -47 39
-11 22 41 11 61 -34 61 -22 0 -46 4 -53 9 -10 6 -13 3 -10 -10z"/>
<path d="M2874 1128 c-5 -8 0 -11 52 -27 38 -12 43 -12 63 8 11 11 18 22 14
22 -30 5 -126 3 -129 -3z"/>
<path d="M1873 1115 c-18 -8 -33 -21 -33 -30 0 -8 2 -15 6 -15 12 0 93 41 99
50 9 15 -35 12 -72 -5z"/>
<path d="M3176 1087 c-11 -23 -24 -53 -29 -67 -5 -14 -15 -32 -22 -40 -6 -8
-15 -23 -18 -33 -6 -16 -5 -16 18 -1 14 9 25 25 25 35 0 10 5 21 10 24 6 3 10
15 10 26 0 10 7 19 15 19 11 0 15 11 15 40 0 22 -1 40 -2 40 -2 0 -12 -19 -22
-43z"/>
<path d="M1480 1100 c-8 -5 -10 -10 -5 -10 6 0 17 5 25 10 8 5 11 10 5 10 -5
0 -17 -5 -25 -10z"/>
<path d="M1495 1080 c-3 -5 -2 -10 4 -10 5 0 13 5 16 10 3 6 2 10 -4 10 -5 0
-13 -4 -16 -10z"/>
<path d="M1940 1079 c0 -5 5 -7 10 -4 6 3 10 8 10 11 0 2 -4 4 -10 4 -5 0 -10
-5 -10 -11z"/>
<path d="M2118 1083 c-15 -4 -18 -16 -18 -74 0 -39 4 -69 10 -69 6 0 10 23 10
50 0 28 4 50 10 50 5 0 9 11 8 25 -1 14 -3 24 -3 24 0 -1 -8 -3 -17 -6z"/>
<path d="M2842 1070 c0 -14 2 -19 5 -12 2 6 2 18 0 25 -3 6 -5 1 -5 -13z"/>
<path d="M690 1065 c-7 -9 -8 -15 -2 -15 5 0 12 7 16 15 3 8 4 15 2 15 -2 0
-9 -7 -16 -15z"/>
<path d="M3828 1034 c4 -6 22 -24 40 -39 23 -20 36 -25 44 -17 12 12 2 33 -15
31 -27 -3 -37 2 -37 20 0 13 -6 19 -19 18 -12 -1 -17 -6 -13 -13z"/>
<path d="M1496 1012 c-7 -12 4 -52 15 -52 4 0 11 5 14 10 3 6 14 10 23 10 9 0
28 9 42 20 l25 20 -26 0 c-15 0 -32 -7 -39 -15 -7 -8 -19 -15 -27 -15 -9 0
-13 6 -9 15 6 16 -9 21 -18 7z"/>
<path d="M1670 1010 c0 -8 5 -22 10 -30 9 -13 10 -13 10 0 0 8 -5 22 -10 30
-9 13 -10 13 -10 0z"/>
<path d="M2518 983 c7 -3 16 -2 19 1 4 3 -2 6 -13 5 -11 0 -14 -3 -6 -6z"/>
<path d="M2697 984 c-4 -4 -7 -18 -7 -31 0 -28 23 -27 28 1 4 20 -11 40 -21
30z"/>
<path d="M2288 973 c6 -2 18 -2 25 0 6 3 1 5 -13 5 -14 0 -19 -2 -12 -5z"/>
<path d="M3690 974 c0 -3 6 -18 14 -32 27 -51 66 -150 66 -166 0 -9 4 -24 10
-34 5 -9 24 -48 41 -87 17 -38 42 -92 54 -120 93 -205 97 -215 71 -215 -16 0
-41 -54 -31 -69 5 -10 125 -16 125 -7 0 3 -31 58 -71 124 -9 15 -18 41 -22 58
-3 17 -29 79 -56 138 -28 59 -51 109 -51 112 0 3 -11 28 -25 55 -13 27 -34 79
-45 117 -28 91 -48 132 -65 132 -8 0 -15 -3 -15 -6z"/>
<path d="M2360 917 c0 -25 4 -48 9 -51 8 -5 3 84 -5 93 -2 2 -4 -16 -4 -42z"/>
<path d="M3590 932 c0 -31 58 -187 67 -182 9 6 9 4 -14 80 -18 63 -42 120 -48
120 -3 0 -5 -8 -5 -18z"/>
<path d="M3660 941 c0 -5 5 -13 10 -16 6 -3 10 -2 10 4 0 5 -4 13 -10 16 -5 3
-10 2 -10 -4z"/>
<path d="M1711 914 c0 -11 3 -14 6 -6 3 7 2 16 -1 19 -3 4 -6 -2 -5 -13z"/>
<path d="M2920 926 c0 -2 7 -6 15 -10 8 -3 15 -1 15 4 0 6 -7 10 -15 10 -8 0
-15 -2 -15 -4z"/>
<path d="M3065 855 c-16 -33 -31 -63 -33 -67 -2 -5 14 -8 35 -8 35 1 37 2 19
15 -19 14 -19 16 -2 48 10 18 17 42 14 52 -2 15 -11 3 -33 -40z"/>
<path d="M1980 833 c0 -13 5 -23 10 -23 13 0 13 11 0 30 -8 12 -10 11 -10 -7z"/>
<path d="M2126 835 c-3 -8 -1 -15 4 -15 6 0 10 7 10 15 0 8 -2 15 -4 15 -2 0
-6 -7 -10 -15z"/>
<path d="M2584 810 c5 -45 16 -49 16 -7 0 21 -4 37 -10 37 -5 0 -8 -14 -6 -30z"/>
<path d="M1730 821 c0 -6 5 -13 10 -16 6 -3 10 1 10 9 0 9 -4 16 -10 16 -5 0
-10 -4 -10 -9z"/>
<path d="M1750 771 c0 -6 5 -13 10 -16 6 -3 10 1 10 9 0 9 -4 16 -10 16 -5 0
-10 -4 -10 -9z"/>
<path d="M1025 760 c-3 -5 1 -10 9 -10 8 0 18 5 21 10 3 6 -1 10 -9 10 -8 0
-18 -4 -21 -10z"/>
<path d="M1769 718 c0 -13 -1 -39 -3 -58 -1 -21 6 -45 17 -61 15 -21 17 -31 8
-47 -6 -11 -11 -35 -11 -52 0 -38 43 -125 66 -134 14 -5 15 -4 4 9 -10 12 -10
21 -2 40 12 27 38 28 85 5 37 -18 62 2 26 20 -34 18 -35 19 -13 34 13 10 23
11 31 4 7 -5 20 -8 30 -6 15 4 13 7 -9 18 -16 7 -28 21 -28 30 0 22 -26 57
-36 47 -4 -4 -2 -13 4 -19 17 -17 15 -38 -3 -38 -8 0 -15 -4 -15 -9 0 -5 -12
-11 -27 -13 -16 -3 -36 -9 -45 -13 -11 -4 -18 -3 -18 4 0 7 16 19 36 27 34 14
35 16 19 34 -19 21 -13 40 13 41 10 0 6 5 -10 10 -18 7 -35 26 -49 57 -13 26
-27 50 -32 53 -6 4 -7 14 -4 23 5 11 1 16 -13 16 -14 0 -20 -7 -21 -22z m41
-218 c0 -5 -5 -10 -11 -10 -5 0 -7 5 -4 10 3 6 8 10 11 10 2 0 4 -4 4 -10z"/>
<path d="M3013 728 c-5 -7 -17 -33 -27 -57 l-17 -43 28 7 c36 9 38 12 23 30
-9 11 -9 22 -2 45 12 32 10 37 -5 18z"/>
<path d="M3962 728 c6 -18 28 -21 28 -4 0 9 -7 16 -16 16 -9 0 -14 -5 -12 -12z"/>
<path d="M2521 719 c-18 -7 -22 -14 -17 -32 3 -12 6 -46 6 -74 l0 -53 33 1
c29 0 30 1 9 9 -32 13 -39 40 -16 57 19 14 19 14 0 29 -19 13 -18 14 15 14 54
0 62 -10 52 -61 -15 -75 34 -130 116 -129 29 1 85 45 76 60 -10 17 -25 11 -25
-10 0 -18 -7 -20 -65 -20 -70 0 -90 15 -65 45 10 13 10 19 -5 35 -9 10 -14 23
-11 29 9 13 68 -5 79 -24 4 -8 13 -15 19 -15 7 0 6 5 -2 15 -14 17 -5 23 40
27 23 3 39 15 40 30 0 9 -89 38 -116 38 -13 0 -28 9 -34 20 -8 16 -21 20 -58
19 -26 0 -58 -5 -71 -10z"/>
<path d="M3675 698 c4 -18 11 -37 16 -42 5 -6 9 -17 9 -26 0 -9 9 -33 20 -54
31 -62 52 -134 45 -156 -5 -14 -2 -20 9 -20 11 0 16 -9 16 -30 0 -16 -4 -30
-10 -30 -5 0 -10 -9 -10 -20 0 -15 7 -20 26 -20 14 0 34 -5 46 -11 32 -17 36
1 6 25 -16 12 -28 27 -28 34 0 7 -9 31 -19 55 -21 46 -56 146 -56 162 -1 22
-62 165 -71 165 -3 0 -3 -15 1 -32z"/>
<path d="M2920 540 c-16 -33 -30 -66 -30 -73 0 -8 -22 -37 -50 -65 -54 -56
-64 -84 -27 -78 12 2 28 -1 35 -7 22 -17 38 7 24 38 -18 39 -6 55 40 55 l41 0
-27 21 c-29 23 -28 53 2 76 9 7 16 21 17 30 1 10 5 28 9 41 14 41 -4 22 -34
-38z"/>
<path d="M1558 563 c6 -2 18 -2 25 0 6 3 1 5 -13 5 -14 0 -19 -2 -12 -5z"/>
<path d="M3685 560 c3 -5 8 -10 11 -10 2 0 4 5 4 10 0 6 -5 10 -11 10 -5 0 -7
-4 -4 -10z"/>
<path d="M2360 530 c-12 -8 -9 -10 12 -10 14 0 33 -3 42 -6 11 -4 16 -1 16 10
0 18 -45 22 -70 6z"/>
<path d="M2505 500 c3 -5 25 -10 48 -9 33 0 38 2 22 9 -28 12 -78 12 -70 0z"/>
<path d="M1676 471 c-3 -5 1 -11 9 -15 15 -6 29 7 18 18 -9 9 -21 8 -27 -3z"/>
<path d="M1609 456 c7 -8 21 -12 31 -9 31 8 23 23 -11 23 -26 0 -29 -3 -20
-14z"/>
<path d="M2037 459 c7 -7 15 -10 18 -7 3 3 -2 9 -12 12 -14 6 -15 5 -6 -5z"/>
<path d="M2104 457 c-12 -7 -19 -17 -17 -23 5 -15 -43 -72 -76 -88 -27 -14
-55 -14 -106 -2 l-30 8 30 -21 c22 -16 46 -21 91 -21 54 0 62 3 80 28 12 15
24 39 28 55 3 15 13 27 21 27 9 0 15 10 15 25 0 28 -6 30 -36 12z"/>
<path d="M2250 463 c0 -4 38 -9 85 -9 46 -1 83 2 80 6 -6 10 -165 13 -165 3z"/>
<path d="M3170 432 c0 -12 78 -33 85 -22 7 12 -3 17 -48 25 -22 4 -37 3 -37
-3z"/>
<path d="M3590 330 c0 -11 4 -20 9 -20 5 0 11 9 14 20 3 13 0 20 -9 20 -8 0
-14 -9 -14 -20z"/>
<path d="M3674 334 c3 -9 6 -18 6 -20 0 -3 5 -2 10 1 16 10 12 35 -6 35 -11 0
-14 -5 -10 -16z"/>
</g>
</svg>
